<svg height="512pt" viewBox="-71 0 512 512" width="512pt" xmlns="http://www.w3.org/2000/svg" xmlns:xlink="http://www.w3.org/1999/xlink"><linearGradient id="a" gradientUnits="userSpaceOnUse" x1="185" x2="185" y1="0" y2="512"><stop offset="0" stop-color="#2af598"/><stop offset="1" stop-color="#009efd"/></linearGradient><path d="m175 315.109375h40v113.890625h-40v-52.347656c-7.984375 3.4375-16.773438 5.347656-26 5.347656v-40c14.335938 0 26-11.664062 26-26zm33-116.109375v34.433594c67.753906 9.738281 120 68.160156 120 138.566406 0 77.195312-62.804688 140-140 140s-140-62.804688-140-140c0-70.40625 52.246094-128.828125 120-138.566406v-34.433594h-52.304688l-115.695312-171.894531v-27.105469h154.816406l30.6875 46.914062 29.433594-46.914062h155.0625v26.894531l-111.105469 172.105469zm-20 73c-55.140625 0-100 44.859375-100 100s44.859375 100 100 100 100-44.859375 100-100-44.859375-100-100-100zm21.605469-188.238281 38.285156 58.535156 66.039063-102.296875h-76.867188zm-72.617188 75.238281h74.03125l-77.835937-119h-76.285156zm0 0" fill="url(#a)"/></svg>