<svg height="512pt" viewBox="0 0 512 512" width="512pt" xmlns="http://www.w3.org/2000/svg" xmlns:xlink="http://www.w3.org/1999/xlink"><linearGradient id="a" gradientUnits="userSpaceOnUse" x1="256" x2="256" y1="0" y2="512"><stop offset="0" stop-color="#2af598"/><stop offset="1" stop-color="#009efd"/></linearGradient><path d="m355 311v-141h-198v110h-157v232h512v-201zm117 161h-432v-152h117v112h40v-222h118v222h40v-81h117zm-37.054688-201h-40.945312v-40h40.945312c1.691407 0 3.359376-.988281 4.292969-2.320312-4.0625-4.074219-13.582031-10.554688-22.046875-14.828126l-10.988281-5.546874-.019531-21.066407 6.070312-6.238281h-18.253906v-40h85v28.761719l-21.519531 22.113281c10.414062 7.703125 22.519531 19.15625 22.519531 34.578125 0 24.5625-20.210938 44.546875-45.054688 44.546875zm-317.945312-31h-87.089844v-29.84375l5.765625-5.84375c19.609375-19.875 38.933594-42.757812 43.578125-51.429688-.679687-1.671874-2.335937-2.882812-4.21875-2.882812h-42.035156v-40h42.035156c24.5625 0 44.546875 19.980469 44.546875 44.542969 0 9.277343-4.433593 20.320312-25.757812 45.457031h23.175781zm117-175.527344c-9.648438 4.808594-20.507812 7.527344-32 7.527344v-40c17.644531 0 32-14.355469 32-32h40v130h-40zm0 0" fill="url(#a)"/></svg>