<svg height="512pt" viewBox="-72 0 512 512" width="512pt" xmlns="http://www.w3.org/2000/svg" xmlns:xlink="http://www.w3.org/1999/xlink"><linearGradient id="a" gradientUnits="userSpaceOnUse" x1="184" x2="184" y1="0" y2="512"><stop offset="0" stop-color="#2af598"/><stop offset="1" stop-color="#009efd"/></linearGradient><path d="m257.953125 199 110.046875-172.152344v-26.847656h-154.0625l-29.433594 46.914062-30.6875-46.914062h-153.816406v27.054688l114.640625 171.945312h52.359375v34.433594c-67.753906 9.738281-120 68.160156-120 138.566406 0 77.195312 62.804688 140 140 140s140-62.804688 140-140c0-70.40625-52.246094-128.828125-120-138.566406v-34.433594zm29.046875 173c0 55.140625-44.859375 100-100 100s-100-44.859375-100-100 44.859375-100 100-100 100 44.859375 100 100zm-50.9375-332h76.054688l-65.308594 102.167969-38.203125-58.40625zm-179.355469 0h75.476563l77.835937 119h-73.972656zm129.789063 275c22.332031 0 40.503906 18.023438 40.503906 40.183594 0 7.820312-3.042969 16.304687-17.21875 33.816406h18.21875v40h-82v-29.578125l5.792969-5.847656c13.972656-14.101563 27.964843-30.285157 33.566406-38.574219h-39.359375v-40zm0 0" fill="url(#a)"/></svg>