<svg height="512pt" viewBox="-71 0 512 512" width="512pt" xmlns="http://www.w3.org/2000/svg" xmlns:xlink="http://www.w3.org/1999/xlink"><linearGradient id="a" gradientUnits="userSpaceOnUse" x1="185" x2="185" y1="0" y2="512"><stop offset="0" stop-color="#2af598"/><stop offset="1" stop-color="#009efd"/></linearGradient><path d="m258.894531 199 111.105469-172.105469v-26.894531h-155.0625l-29.433594 46.914062-30.6875-46.914062h-154.816406v27.105469l115.695312 171.894531h52.304688v34.433594c-67.753906 9.734375-120 68.160156-120 138.566406 0 77.195312 62.804688 140 140 140s140-62.804688 140-140c0-70.40625-52.246094-128.832031-120-138.566406v-34.433594zm29.105469 173c0 55.140625-44.859375 100-100 100s-100-44.859375-100-100 44.859375-100 100-100 100 44.859375 100 100zm-50.9375-332h76.867188l-66.039063 102.296875-38.285156-58.535156zm-180.167969 0h76.289063l77.835937 119h-74.027343zm172.105469 297.476562-20.273438 21.789063c8.269532 5.667969 21.273438 16.628906 21.273438 32.28125 0 23.554687-20.300781 43.453125-44.328125 43.453125h-39.671875v-40h39.671875c1 0 1.988281-.410156 2.769531-1-4.371094-3.414062-12.410156-8.078125-19.277344-11.003906l-12.164062-5.179688v-21.683594l6.640625-7.132812h-17.640625v-40h83zm0 0" fill="url(#a)"/></svg>